<?xml version="1.0" encoding="UTF-8"?>
<svg id="Layer_2" data-name="Layer 2" xmlns="http://www.w3.org/2000/svg" xmlns:xlink="http://www.w3.org/1999/xlink" viewBox="0 0 762.59 252.67">
  <defs>
    <style>
      .cls-1, .cls-2 {
        fill: none;
      }

      .cls-3, .cls-4, .cls-5 {
        fill: #01295a;
      }

      .cls-6 {
        fill: #ffe100;
      }

      .cls-7 {
        fill: #005efd;
      }

      .cls-8 {
        fill: #00ad42;
      }

      .cls-9 {
        clip-path: url(#clippath-1);
      }

      .cls-4 {
        font-family: Verdana-Bold, Verdana;
        font-size: 15.53px;
        font-weight: 700;
      }

      .cls-5 {
        font-family: Verdana, Verdana;
        font-size: 15.6px;
      }

      .cls-10 {
        fill: #fff;
      }

      .cls-11 {
        fill: #ff002a;
      }

      .cls-12 {
        fill: #ff7400;
      }

      .cls-2 {
        stroke: #039123;
        stroke-miterlimit: 10;
        stroke-width: .34px;
      }

      .cls-13 {
        fill: #870eab;
      }

      .cls-14 {
        fill: #039123;
      }

      .cls-15 {
        clip-path: url(#clippath);
      }
    </style>
    <clipPath id="clippath">
      <rect class="cls-1" width="762.59" height="252.67"/>
    </clipPath>
    <clipPath id="clippath-1">
      <rect class="cls-1" x="631.91" y="72.3" width="76.52" height="77.88"/>
    </clipPath>
  </defs>
  <g id="Layer_1-2" data-name="Layer 1">
    <g class="cls-15">
      <g>
        <g>
          <rect class="cls-14" x="30" y="30" width="192.67" height="192.67" rx="54.3" ry="54.3" transform="translate(252.67 252.67) rotate(180)"/>
          <path class="cls-10" d="M75.09,63.59c-.2,6.09-.72,13.24-1.28,20.68-2.18,29.34-4.68,63.17,10.15,87.07,10.5,16.91,26.34,24.62,41.69,25.78,7.73.59,15.35-.51,22.1-2.94,6.98-2.51,13.11-6.48,17.6-11.53,6.74-7.58,9.86-17.41,7.06-28.46-5.89-23.25-39.61-28.61-53.49-30.81-1.48-.24-2.66-.42-3.68-.65-4.59-1.01-9.13,1.9-10.13,6.49-1.01,4.59,1.9,9.13,6.49,10.13.8.17,2.48.44,4.61.78,10.68,1.7,36.64,5.82,39.78,18.22,1.26,4.98-.21,9.49-3.34,13.01-2.61,2.94-6.32,5.3-10.66,6.86-4.56,1.64-9.73,2.38-15.02,1.98-10.48-.79-21.34-6.12-28.6-17.82-11.9-19.17-9.61-50.06-7.63-76.85.54-7.35,1.07-14.4,1.29-21.36.16-4.68-3.5-8.61-8.19-8.77-4.68-.16-8.61,3.5-8.77,8.19h0ZM159.08,110.97l5.48-9.49c2.36-4.09,7.59-5.49,11.68-3.13h0c4.09,2.36,5.49,7.59,3.13,11.68l-5.48,9.49c-2.36,4.09-7.59,5.49-11.68,3.13h0c-4.09-2.36-5.49-7.59-3.13-11.68ZM132.09,102.99l4.48-17.84c1.08-4.31,5.46-6.93,9.77-5.85l.96.24c4.31,1.08,6.93,5.46,5.85,9.77l-4.48,17.84c-1.08,4.31-5.46,6.93-9.77,5.85l-.96-.24c-4.31-1.08-6.93-5.46-5.85-9.77ZM106.16,104.22l-.74-11.45c-.3-4.71,3.27-8.78,7.98-9.08h0c4.71-.3,8.78,3.27,9.08,7.98l.74,11.45c.3,4.71-3.27,8.78-7.98,9.08h0c-4.71.3-8.78-3.27-9.08-7.98Z"/>
        </g>
        <g>
          <path class="cls-14" d="M268.99,49.4h26.66v50.24l46.99-50.24h34.86l-53.83,56.22,58.44,64.76h-37.25l-49.21-57.41v57.41h-26.66V49.4Z"/>
          <path class="cls-3" d="M389,49.4h26.66v96.37h49.38v24.61h-76.04V49.4Z"/>
          <path class="cls-3" d="M471.76,111.54c0-9.42,1.58-17.95,4.74-25.6,3.16-7.65,7.56-14.15,13.21-19.53,5.65-5.37,12.35-9.5,20.11-12.38,7.76-2.88,16.23-4.32,25.43-4.32s17.67,1.44,25.43,4.32c7.76,2.88,14.46,7.01,20.11,12.38,5.65,5.38,10.06,11.88,13.21,19.53,3.16,7.65,4.74,16.18,4.74,25.6s-1.58,17.95-4.74,25.6c-3.16,7.65-7.56,14.16-13.21,19.53-5.65,5.38-12.36,9.5-20.11,12.38-7.76,2.88-16.24,4.32-25.43,4.32s-17.68-1.44-25.43-4.32c-7.76-2.88-14.46-7.01-20.11-12.38-5.65-5.37-10.06-11.89-13.21-19.53-3.16-7.65-4.74-16.18-4.74-25.6ZM498.69,111.54c0,5.54.86,10.61,2.58,15.21,1.72,4.6,4.18,8.59,7.4,11.97,3.21,3.38,7.06,6.01,11.55,7.9,4.49,1.89,9.5,2.83,15.04,2.83s10.56-.94,15.04-2.83c4.49-1.88,8.34-4.51,11.55-7.9,3.21-3.38,5.68-7.37,7.4-11.97,1.72-4.6,2.58-9.67,2.58-15.21s-.86-10.47-2.58-15.13c-1.72-4.65-4.18-8.67-7.4-12.05-3.22-3.38-7.06-6.01-11.55-7.9-4.49-1.88-9.5-2.83-15.04-2.83s-10.56.94-15.04,2.83c-4.49,1.89-8.34,4.52-11.55,7.9-3.22,3.38-5.68,7.4-7.4,12.05-1.72,4.65-2.58,9.7-2.58,15.13Z"/>
          <g class="cls-9">
            <g>
              <rect class="cls-13" x="623.34" y="139.06" width="93.45" height="13.75"/>
              <rect class="cls-7" x="623.34" y="125.31" width="93.45" height="13.75"/>
              <rect class="cls-8" x="623.34" y="111.57" width="93.45" height="13.75"/>
              <rect class="cls-6" x="623.34" y="97.82" width="93.45" height="13.75"/>
              <rect class="cls-12" x="623.34" y="84.07" width="93.45" height="13.75"/>
              <rect class="cls-11" x="623.34" y="70.32" width="93.45" height="13.75"/>
            </g>
          </g>
          <path class="cls-3" d="M605.6,111.54c0-9.42,1.58-17.95,4.74-25.6,3.16-7.65,7.56-14.15,13.21-19.53,5.65-5.37,12.35-9.5,20.11-12.38,7.76-2.88,16.23-4.32,25.43-4.32s17.67,1.44,25.43,4.32c7.76,2.88,14.46,7.01,20.11,12.38,5.65,5.38,10.06,11.88,13.21,19.53s4.74,16.18,4.74,25.6-1.58,17.95-4.74,25.6c-3.16,7.65-7.56,14.16-13.21,19.53-5.65,5.38-12.36,9.5-20.11,12.38-7.76,2.88-16.24,4.32-25.43,4.32s-17.68-1.44-25.43-4.32c-7.76-2.88-14.46-7.01-20.11-12.38-5.65-5.37-10.06-11.89-13.21-19.53-3.16-7.65-4.74-16.18-4.74-25.6ZM632.53,111.54c0,5.54.86,10.61,2.58,15.21,1.72,4.6,4.18,8.59,7.4,11.97,3.21,3.38,7.06,6.01,11.55,7.9,4.49,1.89,9.5,2.83,15.04,2.83s10.56-.94,15.04-2.83c4.49-1.88,8.34-4.51,11.55-7.9,3.21-3.38,5.68-7.37,7.4-11.97,1.72-4.6,2.58-9.67,2.58-15.21s-.86-10.47-2.58-15.13c-1.72-4.65-4.18-8.67-7.4-12.05-3.22-3.38-7.06-6.01-11.55-7.9-4.49-1.88-9.5-2.83-15.04-2.83s-10.56.94-15.04,2.83c-4.49,1.89-8.34,4.52-11.55,7.9-3.22,3.38-5.68,7.4-7.4,12.05-1.72,4.65-2.58,9.7-2.58,15.13Z"/>
          <g>
            <polygon class="cls-10" points="650.16 116.59 652.51 116.59 652.51 130.3 657.45 130.3 657.45 116.59 659.79 116.59 662.46 102.32 647.5 102.32 650.16 116.59"/>
            <circle class="cls-10" cx="654.98" cy="95.7" r="4.62"/>
            <polygon class="cls-10" points="688.28 102.32 678.65 102.32 675.98 116.59 681 116.59 681 130.3 685.93 130.3 685.93 116.59 690.94 116.59 688.28 102.32"/>
            <circle class="cls-10" cx="683.47" cy="95.7" r="4.62"/>
            <rect class="cls-10" x="668.1" y="86.03" width="2.23" height="51.15"/>
          </g>
          <g>
            <text class="cls-5" transform="translate(267.52 198.54)"><tspan x="0" y="0">Click away Restrooms</tspan></text>
            <line class="cls-2" x1="443.06" y1="187.61" x2="443.06" y2="200.73"/>
            <text class="cls-4" transform="translate(447.98 198.52)"><tspan x="0" y="0">An initiative of Suchitwa Mission</tspan></text>
          </g>
          <g>
            <path class="cls-14" d="M535.48,86.19c-11.66,0-21.11,9.45-21.11,21.1,0,1.29.1,2.55.29,3.79,1.79,9.85,10.42,17.32,20.79,17.32,11.62,0,21.05-9.39,21.13-20.99v-.25c-.07-11.6-9.49-20.97-21.1-20.97ZM535.48,120.73c-7.43,0-13.44-6.02-13.44-13.44s6.01-13.44,13.44-13.44,13.44,6.02,13.44,13.44-6.02,13.44-13.44,13.44Z"/>
            <path class="cls-14" d="M551.35,123.75c-4.84,7.67-11.69,13.22-14.54,15.34-.78.58-1.86.58-2.64,0-2.83-2.1-9.62-7.6-14.45-15.19,4.1,3.88,9.64,6.26,15.74,6.26s11.77-2.44,15.89-6.41Z"/>
          </g>
        </g>
      </g>
    </g>
  </g>
</svg>