<?xml version="1.0" encoding="UTF-8"?>
<svg id="Layer_2" data-name="Layer 2" xmlns="http://www.w3.org/2000/svg" viewBox="0 0 684.75 186.81">
  <defs>
    <style>
      .cls-1 {
        fill: #e5e5e5;
      }

      .cls-2 {
        fill: #019863;
      }
    </style>
  </defs>
  <g id="Layer_1-2" data-name="Layer 1">
    <g>
      <g>
        <path class="cls-2" d="M231.72,36.35h25.14v47.38l44.32-47.38h32.88l-50.77,53.02,55.12,61.08h-35.13l-46.42-54.15v54.15h-25.14V36.35Z"/>
        <path class="cls-2" d="M348.08,36.35h25.14v90.9h46.58v23.21h-71.72V36.35Z"/>
        <path class="cls-2" d="M427.53,93.4c0-9.13,1.53-17.41,4.59-24.82,3.06-7.41,7.33-13.72,12.81-18.94,5.48-5.21,11.98-9.21,19.5-12.01,7.52-2.79,15.74-4.19,24.66-4.19s17.14,1.4,24.66,4.19c7.52,2.8,14.02,6.8,19.5,12.01,5.48,5.21,9.75,11.52,12.81,18.94,3.06,7.41,4.59,15.69,4.59,24.82s-1.53,17.41-4.59,24.82c-3.06,7.41-7.33,13.73-12.81,18.94-5.48,5.21-11.98,9.21-19.5,12.01-7.52,2.79-15.74,4.19-24.66,4.19s-17.14-1.4-24.66-4.19c-7.52-2.79-14.02-6.79-19.5-12.01-5.48-5.21-9.75-11.52-12.81-18.94-3.06-7.41-4.59-15.69-4.59-24.82ZM453.64,93.4c0,5.37.83,10.29,2.5,14.75,1.66,4.46,4.05,8.33,7.17,11.6,3.11,3.28,6.85,5.83,11.2,7.66,4.35,1.83,9.21,2.74,14.59,2.74s10.23-.91,14.59-2.74c4.35-1.83,8.08-4.38,11.2-7.66,3.12-3.28,5.5-7.14,7.17-11.6,1.66-4.46,2.5-9.37,2.5-14.75s-.83-10.15-2.5-14.67c-1.67-4.51-4.06-8.41-7.17-11.68-3.12-3.28-6.85-5.83-11.2-7.66-4.35-1.83-9.21-2.74-14.59-2.74s-10.23.91-14.59,2.74c-4.35,1.83-8.09,4.38-11.2,7.66-3.12,3.28-5.51,7.17-7.17,11.68-1.67,4.51-2.5,9.4-2.5,14.67Z"/>
        <path class="cls-2" d="M561.62,93.4c0-9.13,1.53-17.41,4.59-24.82,3.06-7.41,7.33-13.72,12.81-18.94,5.48-5.21,11.98-9.21,19.5-12.01,7.52-2.79,15.74-4.19,24.66-4.19s17.14,1.4,24.66,4.19c7.52,2.8,14.02,6.8,19.5,12.01,5.48,5.21,9.75,11.52,12.81,18.94,3.06,7.41,4.59,15.69,4.59,24.82s-1.53,17.41-4.59,24.82c-3.06,7.41-7.33,13.73-12.81,18.94-5.48,5.21-11.98,9.21-19.5,12.01-7.52,2.79-15.74,4.19-24.66,4.19s-17.14-1.4-24.66-4.19c-7.52-2.79-14.02-6.79-19.5-12.01-5.48-5.21-9.75-11.52-12.81-18.94-3.06-7.41-4.59-15.69-4.59-24.82ZM587.73,93.4c0,5.37.83,10.29,2.5,14.75,1.66,4.46,4.05,8.33,7.17,11.6,3.11,3.28,6.85,5.83,11.2,7.66,4.35,1.83,9.21,2.74,14.59,2.74s10.23-.91,14.59-2.74c4.35-1.83,8.08-4.38,11.2-7.66,3.12-3.28,5.5-7.14,7.17-11.6,1.66-4.46,2.5-9.37,2.5-14.75s-.83-10.15-2.5-14.67c-1.67-4.51-4.06-8.41-7.17-11.68-3.12-3.28-6.85-5.83-11.2-7.66-4.35-1.83-9.21-2.74-14.59-2.74s-10.23.91-14.59,2.74c-4.35,1.83-8.09,4.38-11.2,7.66-3.12,3.28-5.51,7.17-7.17,11.68-1.67,4.51-2.5,9.4-2.5,14.67Z"/>
      </g>
      <g>
        <rect class="cls-2" x="0" y="0" width="186.81" height="186.81" rx="52.65" ry="52.65" transform="translate(186.81 186.81) rotate(180)"/>
        <path class="cls-1" d="M43.72,32.57c-.19,5.9-.7,12.83-1.24,20.05-2.11,28.45-4.54,61.25,9.84,84.42,10.18,16.39,25.54,23.87,40.42,25,7.49.57,14.88-.49,21.43-2.85,6.77-2.44,12.71-6.28,17.06-11.18,6.53-7.35,9.56-16.88,6.84-27.59-5.71-22.54-38.41-27.74-51.86-29.88-1.44-.23-2.58-.41-3.57-.63-4.45-.97-8.85,1.84-9.82,6.29-.97,4.45,1.84,8.85,6.29,9.82.77.17,2.4.43,4.47.76,10.35,1.65,35.52,5.65,38.57,17.66,1.22,4.83-.2,9.2-3.24,12.61-2.53,2.85-6.13,5.14-10.33,6.65-4.42,1.59-9.44,2.31-14.56,1.92-10.16-.77-20.69-5.94-27.73-17.27-11.54-18.59-9.32-48.54-7.4-74.51.53-7.12,1.03-13.96,1.25-20.71.16-4.54-3.4-8.34-7.94-8.5-4.54-.16-8.34,3.4-8.5,7.94h0ZM125.16,78.51l5.31-9.2c2.29-3.96,7.36-5.32,11.32-3.03h0c3.96,2.29,5.32,7.36,3.03,11.32l-5.31,9.2c-2.29,3.96-7.36,5.32-11.32,3.03h0c-3.96-2.29-5.32-7.36-3.03-11.32ZM98.99,70.77l4.34-17.3c1.05-4.18,5.29-6.72,9.47-5.67l.93.23c4.18,1.05,6.72,5.29,5.67,9.47l-4.34,17.3c-1.05,4.18-5.29,6.72-9.47,5.67l-.93-.23c-4.18-1.05-6.72-5.29-5.67-9.47ZM73.84,71.96l-.72-11.1c-.29-4.57,3.17-8.51,7.74-8.8h0c4.57-.29,8.51,3.17,8.8,7.74l.72,11.1c.29,4.57-3.17,8.51-7.74,8.8h0c-4.57.29-8.51-3.17-8.8-7.74Z"/>
      </g>
    </g>
  </g>
</svg>