<?xml version="1.0" encoding="UTF-8"?>
<svg id="Layer_2" data-name="Layer 2" xmlns="http://www.w3.org/2000/svg" xmlns:xlink="http://www.w3.org/1999/xlink" viewBox="0 0 916.21 309.03">
  <defs>
    <style>
      .cls-1, .cls-2 {
        fill: none;
      }

      .cls-3, .cls-4, .cls-5 {
        fill: #192d58;
      }

      .cls-4 {
        font-family: Verdana, Verdana;
        font-size: 18.45px;
      }

      .cls-5 {
        font-family: Verdana-Bold, Verdana;
        font-size: 18.37px;
        font-weight: 700;
      }

      .cls-6 {
        fill: #06ad4b;
      }

      .cls-7 {
        clip-path: url(#clippath-1);
      }

      .cls-8 {
        clip-path: url(#clippath-2);
      }

      .cls-9 {
        fill: #ee1f32;
      }

      .cls-10 {
        fill: #fff;
      }

      .cls-11 {
        fill: #f47521;
      }

      .cls-2 {
        stroke: #939598;
        stroke-miterlimit: 10;
        stroke-width: .72px;
      }

      .cls-12 {
        fill: #803594;
      }

      .cls-13 {
        fill: #119246;
      }

      .cls-14 {
        fill: #4165b0;
      }

      .cls-15 {
        fill: #fee000;
      }

      .cls-16 {
        letter-spacing: -.02em;
      }

      .cls-17 {
        letter-spacing: 0em;
      }

      .cls-18 {
        letter-spacing: 0em;
      }

      .cls-19 {
        letter-spacing: 0em;
      }

      .cls-20 {
        clip-path: url(#clippath);
      }

      .cls-21 {
        fill: #a7a9ac;
      }
    </style>
    <clipPath id="clippath">
      <rect class="cls-1" width="916.21" height="309.03"/>
    </clipPath>
    <clipPath id="clippath-1">
      <rect class="cls-1" x="755.85" y="86.51" width="97.5" height="99.24"/>
    </clipPath>
    <clipPath id="clippath-2">
      <path class="cls-1" d="M784.37,180.82c-5.72-2.4-10.62-5.75-14.72-10.06-4.1-4.31-7.24-9.39-9.43-15.25-2.19-5.86-3.28-12.32-3.28-19.38s1.09-13.34,3.28-19.27c2.19-5.93,5.33-11.04,9.43-15.35,4.09-4.31,9-7.66,14.72-10.06,5.72-2.4,12.11-3.6,19.17-3.6s13.45,1.2,19.17,3.6c5.72,2.4,10.62,5.75,14.72,10.06,4.09,4.31,7.24,9.42,9.43,15.35,2.19,5.93,3.28,12.36,3.28,19.27s-1.09,13.52-3.28,19.38c-2.19,5.86-5.33,10.94-9.43,15.25-4.1,4.31-9,7.66-14.72,10.06-5.72,2.4-12.1,3.6-19.17,3.6s-13.45-1.2-19.17-3.6M771.13,62.85c-9.88,3.67-18.43,8.93-25.63,15.78-7.2,6.85-12.82,15.14-16.84,24.89-4.02,9.74-6.04,20.62-6.04,32.62s2.01,22.88,6.04,32.62c4.02,9.74,9.64,18.04,16.84,24.89,7.2,6.85,15.74,12.11,25.63,15.78,9.88,3.67,20.68,5.5,32.41,5.5s22.52-1.84,32.41-5.5c9.88-3.67,18.42-8.93,25.62-15.78,7.2-6.85,12.82-15.14,16.84-24.89,4.03-9.74,6.04-20.61,6.04-32.62s-2.01-22.87-6.04-32.62c-4.02-9.74-9.63-18.04-16.84-24.89-7.2-6.85-15.75-12.11-25.62-15.78-9.89-3.67-20.69-5.51-32.41-5.51s-22.52,1.84-32.41,5.51"/>
    </clipPath>
  </defs>
  <g id="Layer_1-2" data-name="Layer 1">
    <g class="cls-20">
      <g>
        <g>
          <path class="cls-13" d="M154.52,277.27h0c67.79,0,122.75-54.96,122.75-122.75S222.31,31.77,154.52,31.77,31.77,86.72,31.77,154.52s54.96,122.75,122.75,122.75"/>
          <path class="cls-10" d="M89.22,74.99c-.25,7.76-.92,16.87-1.63,26.36-2.77,37.39-5.97,80.5,12.94,110.94,13.38,21.54,33.57,31.37,53.12,32.86,9.85.74,19.55-.65,28.16-3.75,8.9-3.2,16.7-8.25,22.42-14.69,8.59-9.66,12.56-22.18,9-36.26-7.5-29.62-50.48-36.45-68.16-39.26-1.89-.3-3.39-.54-4.69-.83-5.85-1.28-11.63,2.43-12.91,8.27-1.28,5.85,2.42,11.63,8.27,12.91,1.01.22,3.15.56,5.87.99,13.61,2.17,46.69,7.42,50.69,23.22,1.61,6.35-.26,12.09-4.25,16.57-3.33,3.75-8.06,6.75-13.58,8.74-5.81,2.09-12.4,3.03-19.14,2.52-13.35-1.01-27.19-7.8-36.44-22.7-15.17-24.42-12.25-63.78-9.72-97.92.69-9.36,1.36-18.35,1.65-27.22.2-5.97-4.47-10.97-10.43-11.17-5.96-.21-10.96,4.47-11.17,10.43M196.24,135.37l6.98-12.1c3.01-5.21,9.67-6.99,14.88-3.99,5.21,3.01,6.99,9.67,3.99,14.88l-6.98,12.1c-3.01,5.21-9.67,6.99-14.88,3.98-5.21-3.01-6.99-9.67-3.99-14.88M162.01,124.58l5.39-21.51c1.46-5.84,7.38-9.38,13.21-7.92,5.84,1.46,9.38,7.38,7.92,13.22l-5.39,21.51c-1.47,5.84-7.38,9.38-13.22,7.92-5.84-1.46-9.38-7.38-7.91-13.22M128.81,126.76l-.94-14.59c-.38-6,4.16-11.18,10.17-11.57,6-.39,11.18,4.17,11.57,10.17l.94,14.59c.39,6-4.16,11.18-10.17,11.57-6,.39-11.19-4.17-11.57-10.17"/>
        </g>
        <g>
          <polygon class="cls-13" points="336.28 57.33 370.25 57.33 370.25 121.35 430.13 57.33 474.54 57.33 405.96 128.97 480.42 211.49 432.96 211.49 370.25 138.33 370.25 211.49 336.28 211.49 336.28 57.33"/>
          <polygon class="cls-3" points="487.82 57.33 521.79 57.33 521.79 180.13 584.71 180.13 584.71 211.49 487.82 211.49 487.82 57.33"/>
          <text class="cls-4" transform="translate(334.42 246.11)"><tspan x="0" y="0">Click </tspan><tspan class="cls-18" x="50.02" y="0">a</tspan><tspan class="cls-19" x="61.03" y="0">w</tspan><tspan class="cls-17" x="75.96" y="0">a</tspan><tspan x="86.91" y="0">y </tspan><tspan class="cls-16" x="104.31" y="0">R</tspan><tspan x="116.69" y="0">estrooms</tspan></text>
          <text class="cls-5" transform="translate(547.84 246.09)"><tspan x="0" y="0">An initiative of Suchitwa Mission</tspan></text>
          <g>
            <g class="cls-7">
              <rect class="cls-10" x="744.91" y="171.58" width="119.08" height="17.51"/>
              <rect class="cls-10" x="744.91" y="154.07" width="119.08" height="17.52"/>
              <rect class="cls-10" x="744.91" y="136.55" width="119.08" height="17.52"/>
              <rect class="cls-10" x="744.91" y="119.03" width="119.08" height="17.51"/>
              <rect class="cls-10" x="744.91" y="101.51" width="119.08" height="17.52"/>
              <rect class="cls-10" x="744.91" y="84" width="119.08" height="17.52"/>
            </g>
            <g class="cls-8">
              <rect class="cls-12" x="700.44" y="192.49" width="205.35" height="29.14"/>
              <rect class="cls-14" x="700.44" y="163.35" width="205.35" height="29.14"/>
              <rect class="cls-6" x="700.44" y="134.21" width="205.35" height="29.14"/>
              <rect class="cls-15" x="700.44" y="105.07" width="205.35" height="29.14"/>
              <rect class="cls-11" x="700.44" y="75.93" width="205.35" height="29.14"/>
              <rect class="cls-9" x="700.44" y="46.79" width="205.35" height="29.14"/>
            </g>
            <polygon class="cls-21" points="779.1 144.25 782.09 144.25 782.09 161.72 788.38 161.72 788.38 144.25 791.36 144.25 794.76 126.08 775.7 126.08 779.1 144.25"/>
            <polygon class="cls-2" points="779.1 144.25 782.09 144.25 782.09 161.72 788.38 161.72 788.38 144.25 791.36 144.25 794.76 126.08 775.7 126.08 779.1 144.25"/>
            <path class="cls-21" d="M784.89,111.76c3.25-.19,6.04,2.29,6.22,5.54.19,3.25-2.29,6.03-5.53,6.22-3.25.19-6.04-2.29-6.22-5.54-.19-3.25,2.29-6.03,5.53-6.22"/>
            <path class="cls-2" d="M784.89,111.76c3.25-.19,6.04,2.29,6.22,5.54.19,3.25-2.29,6.03-5.53,6.22-3.25.19-6.04-2.29-6.22-5.54-.19-3.25,2.29-6.03,5.53-6.22Z"/>
            <polygon class="cls-21" points="827.66 126.08 815.4 126.08 812 144.25 818.38 144.25 818.38 161.72 824.68 161.72 824.68 144.25 831.06 144.25 827.66 126.08"/>
            <polygon class="cls-2" points="827.66 126.08 815.4 126.08 812 144.25 818.38 144.25 818.38 161.72 824.68 161.72 824.68 144.25 831.06 144.25 827.66 126.08"/>
            <path class="cls-21" d="M820.59,111.83c3.21-.52,6.24,1.66,6.75,4.88.52,3.21-1.66,6.23-4.88,6.75-3.21.52-6.23-1.67-6.75-4.87-.52-3.21,1.66-6.24,4.88-6.76"/>
            <path class="cls-2" d="M820.59,111.83c3.21-.52,6.24,1.66,6.75,4.88.52,3.21-1.66,6.23-4.88,6.75-3.21.52-6.23-1.67-6.75-4.87-.52-3.21,1.66-6.24,4.88-6.76Z"/>
            <rect class="cls-21" x="801.96" y="105.31" width="2.84" height="65.18"/>
            <rect class="cls-2" x="801.96" y="105.31" width="2.84" height="65.18"/>
          </g>
          <path class="cls-3" d="M653.51,60.24c-34.06,0-61.66,27.61-61.66,61.66,0,47,57.68,90.17,60.14,91.99.91.67,2.15.67,3.05,0,2.46-1.81,60.14-44.99,60.14-91.99,0-34.06-27.61-61.66-61.66-61.66ZM653.51,163.01c-22.71,0-41.12-18.41-41.12-41.11s18.41-41.12,41.12-41.12,41.11,18.41,41.11,41.12-18.41,41.11-41.11,41.11Z"/>
        </g>
      </g>
    </g>
  </g>
</svg>