<svg xmlns="http://www.w3.org/2000/svg" xmlns:xlink="http://www.w3.org/1999/xlink" width="157.502" height="50.13" viewBox="0 0 157.502 50.13">
  <defs>
    <clipPath id="clip-path">
      <rect id="Rectangle_16901" data-name="Rectangle 16901" width="38" height="38" transform="translate(-1.568 0.331)" fill="#065147"/>
    </clipPath>
  </defs>
  <g id="Group_75974" data-name="Group 75974" transform="translate(-94 -37.669)">
    <g id="Group_20998" data-name="Group 20998" transform="translate(143.346 37.669)">
      <g id="Group_20997" data-name="Group 20997" transform="translate(0.593)">
        <path id="Path_4870" data-name="Path 4870" d="M655.745,145.748l-.987,7.551H650.34l4.538-28.229h6.137l4.711,28.229h-4.54l-1.107-7.551h-4.333Zm3.82-4c-.644-4.795-1.259-9.345-1.581-12.536h-.158c-.122,2.326-.969,8.371-1.529,12.536h3.27Z" transform="translate(-650.34 -123.84)" fill="#383938"/>
        <path id="Path_4871" data-name="Path 4871" d="M795.15,125.07h6.026c5.976,0,7.429,3.1,7.429,8.342v10.825c0,4.316-.739,9.062-7.438,9.062H795.15Zm4.345,24.524h1.393c2.855,0,3.293-1.842,3.293-4.765V133.07c0-2.6-.457-4.256-3.321-4.256h-1.365Z" transform="translate(-777.683 -123.84)" fill="#383938"/>
        <path id="Path_4872" data-name="Path 4872" d="M937.925,140.676V153.3H933.58V125.07H939.6c4.286,0,6.816,1.721,6.816,6.8v1.075c0,4.338-1.777,5.441-2.867,5.889,1.643.772,2.583,1.959,2.583,5.79a78.251,78.251,0,0,0,.258,8.674h-4.2a60.944,60.944,0,0,1-.3-8.393c0-3.441-.441-4.23-2.964-4.23h-1.008Zm0-3.595h1c2.3,0,3.143-.868,3.143-3.938v-.969c0-2.182-.45-3.51-2.913-3.51h-1.228v8.417Z" transform="translate(-899.415 -123.84)" fill="#383938"/>
        <path id="Path_4873" data-name="Path 4873" d="M1077.955,140.4h-6.191V149.3h7.137l-.55,4H1067.42V125.07H1078.3v4.041h-6.534V136.4h6.191Z" transform="translate(-1017.111 -123.84)" fill="#383938"/>
        <path id="Path_4874" data-name="Path 4874" d="M1188.8,114.87v23.395c0,3.333,0,4.877.042,6.066H1184.7c-.08-.551-.159-1.735-.159-2.081a3.856,3.856,0,0,1-3.849,2.418c-3.92,0-4.678-3.136-4.678-7.374v-8.565c0-3.8,1.449-6.611,5.009-6.611a3.707,3.707,0,0,1,3.438,1.542v-8.79ZM1180.36,129v8.646c0,2.019.478,3.119,1.977,3.119,1.776,0,2.122-1.593,2.122-4.091v-6.731c0-2.367-.216-3.923-2.069-3.923-1.509,0-2.029,1.147-2.029,2.979" transform="translate(-1112.603 -114.87)" fill="#383938"/>
        <path id="Path_4875" data-name="Path 4875" d="M1319.887,195.943c0,4.85-.469,8.89-6.684,8.89-5.2,0-6.071-3.268-6.071-5.693v-.089h4.35v.1a1.905,1.905,0,0,0,1.954,2.094c1.734,0,2.106-1.386,2.106-4.145v-2.388a3.65,3.65,0,0,1-3.595,2.01c-3.978,0-4.848-3.1-4.848-6.855V181.6c0-2.975,1.116-6.649,5.306-6.649,2.294,0,3.236,1.071,3.6,2.266a11.265,11.265,0,0,1,.2-1.929h3.762c-.042,1.349-.084,3.159-.084,5.465v15.19Zm-8.437-14.078v7.679c0,2.222.52,3.345,1.929,3.345,1.853,0,2.169-1.462,2.169-4.142v-6.409c0-1.862-.188-3.485-1.942-3.485-1.391,0-2.156.893-2.156,3.012" transform="translate(-1227.88 -167.703)" fill="#383938"/>
        <path id="Path_4876" data-name="Path 4876" d="M1442.443,187.4v3.213c0,1.69.39,3.235,2.039,3.235,1.731,0,1.944-1.551,1.944-3.125v-.1h4.233v.1c0,2.3-.489,6.8-6.076,6.8s-6.373-3.451-6.373-7.873v-7.169c0-2.991.941-7.509,6.351-7.509,4.661,0,6.177,3.149,6.177,7.477V187.4h-8.3Zm4.136-3.409v-2.24c0-2.023-.466-3.117-2.024-3.117-1.4,0-2.076,1-2.076,3.122v2.234h4.1Z" transform="translate(-1343.176 -167.721)" fill="#383938"/>
      </g>
      <text id="ODR_Platform" data-name="ODR Platform" transform="translate(0 48.13)" fill="#686868" font-size="11" font-family="Lato" font-weight="700"><tspan x="0" y="0">ODR Platform</tspan></text>
    </g>
    <g id="Group_54043" data-name="Group 54043" transform="translate(106.059 68.766)">
      <g id="Group_54035" data-name="Group 54035" transform="translate(-10.491 -31.096)" clip-path="url(#clip-path)">
        <path id="Path_23737" data-name="Path 23737" d="M-10.861,6.778A17.659,17.659,0,0,1-28.5-10.861,17.659,17.659,0,0,1-10.861-28.5v7.877a9.773,9.773,0,0,0-9.762,9.762A9.773,9.773,0,0,0-10.861-1.1,9.773,9.773,0,0,0-1.1-10.861H6.778A17.659,17.659,0,0,1-10.861,6.778Z" transform="translate(28.408 30.23)" fill="#065147"/>
        <path id="Path_23738" data-name="Path 23738" d="M148.751,38.625a4.125,4.125,0,1,1-4.125-4.125,4.126,4.126,0,0,1,4.125,4.125" transform="translate(-113.759 -28.894)" fill="#065147"/>
      </g>
    </g>
  </g>
</svg>
