<?xml version="1.0" encoding="UTF-8"?>
<svg id="Layer_2" data-name="Layer 2" xmlns="http://www.w3.org/2000/svg" viewBox="0 0 684.75 186.81">
  <defs>
    <style>
      .cls-1 {
        fill: #019863;
      }
    </style>
  </defs>
  <g id="Layer_1-2" data-name="Layer 1">
    <g>
      <g>
        <path class="cls-1" d="M231.72,36.35h25.14v47.38l44.32-47.38h32.88l-50.77,53.02,55.12,61.08h-35.13l-46.42-54.15v54.15h-25.14V36.35Z"/>
        <path class="cls-1" d="M348.08,36.35h25.14v90.9h46.58v23.21h-71.72V36.35Z"/>
        <path class="cls-1" d="M427.53,93.41c0-9.13,1.53-17.41,4.59-24.82s7.33-13.72,12.81-18.94c5.48-5.21,11.98-9.21,19.5-12.01,7.52-2.79,15.74-4.19,24.66-4.19s17.14,1.4,24.66,4.19c7.52,2.8,14.02,6.8,19.5,12.01,5.48,5.21,9.75,11.52,12.81,18.94s4.59,15.69,4.59,24.82-1.53,17.41-4.59,24.82c-3.06,7.41-7.33,13.73-12.81,18.94-5.48,5.21-11.98,9.21-19.5,12.01-7.52,2.79-15.74,4.19-24.66,4.19s-17.14-1.4-24.66-4.19c-7.52-2.79-14.02-6.79-19.5-12.01-5.48-5.21-9.75-11.52-12.81-18.94-3.06-7.41-4.59-15.69-4.59-24.82ZM453.64,93.41c0,5.37.83,10.29,2.5,14.75,1.66,4.46,4.05,8.33,7.17,11.6,3.11,3.28,6.85,5.83,11.2,7.66,4.35,1.83,9.21,2.74,14.59,2.74s10.23-.91,14.59-2.74c4.35-1.83,8.08-4.38,11.2-7.66,3.12-3.28,5.5-7.14,7.17-11.6,1.66-4.46,2.5-9.37,2.5-14.75s-.83-10.15-2.5-14.67c-1.67-4.51-4.06-8.41-7.17-11.68-3.12-3.28-6.85-5.83-11.2-7.66-4.35-1.83-9.21-2.74-14.59-2.74s-10.23.91-14.59,2.74c-4.35,1.83-8.09,4.38-11.2,7.66-3.12,3.28-5.51,7.17-7.17,11.68-1.67,4.51-2.5,9.4-2.5,14.67Z"/>
        <path class="cls-1" d="M561.62,93.41c0-9.13,1.53-17.41,4.59-24.82,3.06-7.41,7.33-13.72,12.81-18.94,5.48-5.21,11.98-9.21,19.5-12.01,7.52-2.79,15.74-4.19,24.66-4.19s17.14,1.4,24.66,4.19c7.52,2.8,14.02,6.8,19.5,12.01,5.48,5.21,9.75,11.52,12.81,18.94,3.06,7.41,4.59,15.69,4.59,24.82s-1.53,17.41-4.59,24.82c-3.06,7.41-7.33,13.73-12.81,18.94-5.48,5.21-11.98,9.21-19.5,12.01-7.52,2.79-15.74,4.19-24.66,4.19s-17.14-1.4-24.66-4.19c-7.52-2.79-14.02-6.79-19.5-12.01-5.48-5.21-9.75-11.52-12.81-18.94-3.06-7.41-4.59-15.69-4.59-24.82ZM587.73,93.41c0,5.37.83,10.29,2.5,14.75,1.66,4.46,4.05,8.33,7.17,11.6,3.11,3.28,6.85,5.83,11.2,7.66,4.35,1.83,9.21,2.74,14.59,2.74s10.23-.91,14.59-2.74c4.35-1.83,8.08-4.38,11.2-7.66,3.12-3.28,5.5-7.14,7.17-11.6,1.66-4.46,2.5-9.37,2.5-14.75s-.83-10.15-2.5-14.67c-1.67-4.51-4.06-8.41-7.17-11.68-3.12-3.28-6.85-5.83-11.2-7.66-4.35-1.83-9.21-2.74-14.59-2.74s-10.23.91-14.59,2.74c-4.35,1.83-8.09,4.38-11.2,7.66-3.12,3.28-5.51,7.17-7.17,11.68-1.67,4.51-2.5,9.4-2.5,14.67Z"/>
      </g>
      <path class="cls-1" d="M134.16,0H52.65C23.57,0,0,23.57,0,52.65v81.51c0,29.08,23.57,52.65,52.65,52.65h81.51c29.08,0,52.65-23.57,52.65-52.65V52.65c0-29.08-23.57-52.65-52.65-52.65ZM98.98,70.77l4.34-17.3c1.05-4.19,5.3-6.73,9.48-5.68l.93.24c4.18,1.05,6.72,5.29,5.67,9.47l-4.34,17.3c-1.05,4.18-5.29,6.72-9.47,5.67l-.93-.23c-4.18-1.05-6.72-5.29-5.68-9.47ZM80.86,52.06c.18,0,.36-.02.53-.02,4.34,0,7.99,3.37,8.28,7.76l.71,11.1c.3,4.57-3.17,8.51-7.73,8.8-.18.01-.37.02-.55.02-4.33,0-7.97-3.37-8.26-7.76l-.71-11.09c-.3-4.57,3.17-8.51,7.73-8.81ZM131.24,148.01c-4.36,4.89-10.3,8.73-17.07,11.17-6.55,2.36-13.93,3.42-21.43,2.86-14.88-1.13-30.24-8.61-40.42-25-14.38-23.17-11.95-55.97-9.84-84.42.53-7.22,1.05-14.15,1.24-20.05.15-4.54,3.96-8.1,8.5-7.94,4.53.16,8.09,3.96,7.93,8.5-.21,6.75-.72,13.59-1.25,20.71-1.93,25.98-4.14,55.93,7.4,74.51,7.04,11.34,17.57,16.51,27.73,17.28,5.12.39,10.14-.33,14.56-1.92,4.2-1.51,7.8-3.8,10.33-6.65,3.04-3.41,4.46-7.78,3.24-12.61-3.05-12.02-28.22-16.02-38.57-17.67-2.07-.32-3.7-.58-4.47-.75-4.45-.98-7.27-5.37-6.29-9.83.97-4.45,5.37-7.26,9.82-6.29.99.22,2.13.4,3.57.63,13.45,2.14,46.15,7.33,51.86,29.87,2.71,10.71-.31,20.25-6.84,27.6ZM144.82,77.6l-5.31,9.2c-2.29,3.96-7.36,5.32-11.32,3.03-2.66-1.54-4.14-4.32-4.14-7.18,0-1.41.36-2.83,1.11-4.14l5.31-9.2c2.29-3.97,7.36-5.32,11.32-3.04,2.66,1.53,4.14,4.32,4.14,7.18,0,1.41-.35,2.84-1.11,4.15Z"/>
    </g>
  </g>
</svg>